<svg width="30" height="18" viewBox="0 0 30 18" fill="none" xmlns="http://www.w3.org/2000/svg"><path d="M29.312 1.219c.21-.703 0-1.219-.99-1.219h-3.284c-.835 0-1.217.446-1.427.936 0 0-1.67 4.112-4.035 6.779-.763.775-1.112 1.02-1.528 1.02-.208 0-.51-.245-.51-.948V1.22C17.537.375 17.295 0 16.6 0h-5.159c-.52 0-.835.39-.835.762 0 .799 1.183.983 1.304 3.234v4.881c0 1.07-.19 1.265-.61 1.265-1.112 0-3.819-4.127-5.425-8.852C5.562.372 5.246.002 4.408.002H1.126C.187.002 0 .448 0 .938c0 .88 1.112 5.235 5.182 10.996C7.894 15.868 11.714 18 15.192 18c2.086 0 2.344-.473 2.344-1.29v-2.973c0-.947.199-1.138.86-1.138.484 0 1.32.248 3.267 2.143 2.225 2.248 2.593 3.256 3.844 3.256h3.281c.938 0 1.406-.473 1.137-1.408-.295-.93-1.358-2.283-2.769-3.885-.766-.913-1.911-1.896-2.26-2.388-.487-.633-.346-.913 0-1.476.001.002 4-5.688 4.416-7.622z" fill="#E8A700"/></svg>