<svg width="57" height="57" viewBox="0 0 57 57" fill="none" xmlns="http://www.w3.org/2000/svg"><g filter="url(#filter0_d)"><circle cx="28.5" cy="24.5" r="24.5" fill="#FFD458"/><circle cx="28.5" cy="24.5" r="23.5" stroke="#fff" stroke-width="2"/></g><path d="M42.312 19.219c.21-.703 0-1.219-.99-1.219h-3.284c-.835 0-1.217.446-1.427.936 0 0-1.67 4.112-4.034 6.779-.764.775-1.113 1.02-1.53 1.02-.207 0-.51-.245-.51-.948V19.22c0-.844-.24-1.219-.937-1.219h-5.159c-.52 0-.835.39-.835.762 0 .799 1.182.983 1.304 3.234v4.882c0 1.069-.19 1.264-.61 1.264-1.112 0-3.819-4.127-5.425-8.852-.313-.918-.629-1.288-1.467-1.288h-3.282c-.939 0-1.126.446-1.126.936 0 .88 1.113 5.235 5.182 10.996C20.894 33.868 24.714 36 28.192 36c2.086 0 2.344-.473 2.344-1.29v-2.973c0-.947.199-1.138.86-1.138.484 0 1.32.248 3.267 2.143C36.889 34.99 37.258 36 38.508 36h3.281c.938 0 1.406-.474 1.137-1.409-.295-.93-1.358-2.283-2.769-3.885-.766-.913-1.911-1.896-2.26-2.388-.487-.633-.346-.913 0-1.476.001.002 4-5.688 4.416-7.622z" fill="#fff"/><defs><filter id="filter0_d" x="0" y="0" width="57" height="57" filterUnits="userSpaceOnUse" color-interpolation-filters="sRGB"><feFlood flood-opacity="0" result="BackgroundImageFix"/><feColorMatrix in="SourceAlpha" values="0 0 0 0 0 0 0 0 0 0 0 0 0 0 0 0 0 0 127 0"/><feOffset dy="4"/><feGaussianBlur stdDeviation="2"/><feColorMatrix values="0 0 0 0 0.441962 0 0 0 0 0.441962 0 0 0 0 0.441962 0 0 0 0.2 0"/><feBlend in2="BackgroundImageFix" result="effect1_dropShadow"/><feBlend in="SourceGraphic" in2="effect1_dropShadow" result="shape"/></filter></defs></svg>